<svg width="58" height="58" viewBox="0 0 58 58" fill="none" xmlns="http://www.w3.org/2000/svg">
<g filter="url(#filter0_d_116_4938)">
<path fill-rule="evenodd" clip-rule="evenodd" d="M44.9292 23.5833C44.7153 22.5392 43.8126 20.4378 41.9133 20.3856C40.1155 20.3362 33.5002 20.1745 28.9999 20.099C24.4997 20.1745 17.8845 20.3362 16.0868 20.3856C14.1874 20.4378 13.2847 22.5392 13.0709 23.5833C13.2847 24.6276 14.1874 26.7289 16.0868 26.7812C17.8845 26.8306 24.4997 26.9922 28.9999 27.0678C33.5002 26.9922 40.1155 26.8306 41.9133 26.7812C43.8126 26.7289 44.7153 24.6276 44.9292 23.5833ZM45.25 34.4167V23.5833V12.75H44.9292C44.7153 13.7942 43.8126 15.8956 41.9133 15.9478C40.1155 15.9973 33.5002 16.1588 28.9999 16.2344C24.4997 16.1588 17.8845 15.9973 16.0868 15.9478C14.1874 15.8956 13.2847 13.7942 13.0709 12.75H12.75V23.5833V34.4167V45.25H13.0709C13.2847 44.2059 14.1874 42.1044 16.0868 42.0523C17.8845 42.0029 24.4997 41.8412 28.9999 41.7657C33.5002 41.8412 40.1155 42.0029 41.9133 42.0523C43.8126 42.1044 44.7153 44.2059 44.9292 45.25H45.25V34.4167ZM13.0709 34.4167C13.2847 35.4609 14.1874 37.5622 16.0868 37.6145C17.8845 37.6639 24.4997 37.8255 28.9999 37.9011C33.5002 37.8255 40.1155 37.6639 41.9133 37.6145C43.8126 37.5622 44.7153 35.4609 44.9292 34.4167C44.7153 33.3726 43.8126 31.2711 41.9133 31.2189C40.1155 31.1695 33.5002 31.0078 28.9999 30.9323C24.4997 31.0078 17.8845 31.1695 16.0868 31.2189C14.1874 31.2711 13.2847 33.3726 13.0709 34.4167Z" fill="url(#paint0_linear_116_4938)"/>
</g>
<defs>
<filter id="filter0_d_116_4938" x="0.25" y="0.25" width="57.5" height="57.5" filterUnits="userSpaceOnUse" color-interpolation-filters="sRGB">
<feFlood flood-opacity="0" result="BackgroundImageFix"/>
<feColorMatrix in="SourceAlpha" type="matrix" values="0 0 0 0 0 0 0 0 0 0 0 0 0 0 0 0 0 0 127 0" result="hardAlpha"/>
<feOffset/>
<feGaussianBlur stdDeviation="6.25"/>
<feComposite in2="hardAlpha" operator="out"/>
<feColorMatrix type="matrix" values="0 0 0 0 0 0 0 0 0 0 0 0 0 0 0 0 0 0 1 0"/>
<feBlend mode="normal" in2="BackgroundImageFix" result="effect1_dropShadow_116_4938"/>
<feBlend mode="normal" in="SourceGraphic" in2="effect1_dropShadow_116_4938" result="shape"/>
</filter>
<linearGradient id="paint0_linear_116_4938" x1="29" y1="12.75" x2="29" y2="45.25" gradientUnits="userSpaceOnUse">
<stop stop-color="#815F2D"/>
<stop offset="0.721666" stop-color="#AC9563"/>
</linearGradient>
</defs>
</svg>
